<?xml version="1.0" encoding="utf-8" standalone="no"?>
<!DOCTYPE svg PUBLIC "-//W3C//DTD SVG 1.1//EN"
  "http://www.w3.org/Graphics/SVG/1.1/DTD/svg11.dtd">
<svg xmlns:xlink="http://www.w3.org/1999/xlink" width="432pt" height="288pt" viewBox="0 0 432 288" xmlns="http://www.w3.org/2000/svg" version="1.1">
 <metadata>
  <rdf:RDF xmlns:dc="http://purl.org/dc/elements/1.1/" xmlns:cc="http://creativecommons.org/ns#" xmlns:rdf="http://www.w3.org/1999/02/22-rdf-syntax-ns#">
   <cc:Work>
    <dc:type rdf:resource="http://purl.org/dc/dcmitype/StillImage"/>
    <dc:date>2026-05-13T05:59:30.409528</dc:date>
    <dc:format>image/svg+xml</dc:format>
    <dc:creator>
     <cc:Agent>
      <dc:title>Matplotlib v3.6.3, https://matplotlib.org/</dc:title>
     </cc:Agent>
    </dc:creator>
   </cc:Work>
  </rdf:RDF>
 </metadata>
 <defs>
  <style type="text/css">*{stroke-linejoin: round; stroke-linecap: butt}</style>
 </defs>
 <g id="figure_1">
  <g id="patch_1">
   <path d="M 0 288 
L 432 288 
L 432 0 
L 0 0 
z
" style="fill: #ffffff"/>
  </g>
  <g id="axes_1">
   <g id="patch_2">
    <path d="M 96.5 212.92 
L 410.4 212.92 
L 410.4 21.6 
L 96.5 21.6 
z
" style="fill: #ffffff"/>
   </g>
   <g id="matplotlib.axis_1">
    <g id="xtick_1">
     <g id="line2d_1">
      <defs>
       <path id="m98550893a3" d="M 0 0 
L 0 3.5 
" style="stroke: #000000; stroke-width: 0.8"/>
      </defs>
      <g>
       <use xlink:href="#m98550893a3" x="110.768182" y="212.92" style="stroke: #000000; stroke-width: 0.8"/>
      </g>
     </g>
     <g id="text_1">
      <!-- 0 -->
      <g transform="translate(104.405682 235.116875) scale(0.2 -0.2)">
       <defs>
        <path id="DejaVuSerif-30" d="M 2034 219 
Q 2513 219 2750 744 
Q 2988 1269 2988 2328 
Q 2988 3391 2750 3916 
Q 2513 4441 2034 4441 
Q 1556 4441 1318 3916 
Q 1081 3391 1081 2328 
Q 1081 1269 1318 744 
Q 1556 219 2034 219 
z
M 2034 -91 
Q 1275 -91 848 546 
Q 422 1184 422 2328 
Q 422 3475 848 4112 
Q 1275 4750 2034 4750 
Q 2797 4750 3222 4112 
Q 3647 3475 3647 2328 
Q 3647 1184 3222 546 
Q 2797 -91 2034 -91 
z
" transform="scale(0.015625)"/>
       </defs>
       <use xlink:href="#DejaVuSerif-30"/>
      </g>
     </g>
    </g>
    <g id="xtick_2">
     <g id="line2d_2">
      <g>
       <use xlink:href="#m98550893a3" x="225.027896" y="212.92" style="stroke: #000000; stroke-width: 0.8"/>
      </g>
     </g>
     <g id="text_2">
      <!-- 20 -->
      <g transform="translate(212.302896 235.116875) scale(0.2 -0.2)">
       <defs>
        <path id="DejaVuSerif-32" d="M 819 3553 
L 469 3553 
L 469 4384 
Q 803 4563 1142 4656 
Q 1481 4750 1806 4750 
Q 2534 4750 2956 4397 
Q 3378 4044 3378 3438 
Q 3378 2753 2422 1800 
Q 2347 1728 2309 1691 
L 1131 513 
L 3078 513 
L 3078 1088 
L 3444 1088 
L 3444 0 
L 434 0 
L 434 341 
L 1850 1753 
Q 2319 2222 2519 2614 
Q 2719 3006 2719 3438 
Q 2719 3909 2473 4175 
Q 2228 4441 1797 4441 
Q 1350 4441 1106 4219 
Q 863 3997 819 3553 
z
" transform="scale(0.015625)"/>
       </defs>
       <use xlink:href="#DejaVuSerif-32"/>
       <use xlink:href="#DejaVuSerif-30" x="63.623047"/>
      </g>
     </g>
    </g>
    <g id="xtick_3">
     <g id="line2d_3">
      <g>
       <use xlink:href="#m98550893a3" x="339.28761" y="212.92" style="stroke: #000000; stroke-width: 0.8"/>
      </g>
     </g>
     <g id="text_3">
      <!-- 40 -->
      <g transform="translate(326.56261 235.116875) scale(0.2 -0.2)">
       <defs>
        <path id="DejaVuSerif-34" d="M 2234 1581 
L 2234 4063 
L 641 1581 
L 2234 1581 
z
M 3609 0 
L 1484 0 
L 1484 331 
L 2234 331 
L 2234 1247 
L 197 1247 
L 197 1588 
L 2241 4750 
L 2859 4750 
L 2859 1581 
L 3750 1581 
L 3750 1247 
L 2859 1247 
L 2859 331 
L 3609 331 
L 3609 0 
z
" transform="scale(0.015625)"/>
       </defs>
       <use xlink:href="#DejaVuSerif-34"/>
       <use xlink:href="#DejaVuSerif-30" x="63.623047"/>
      </g>
     </g>
    </g>
    <g id="text_4">
     <!-- time [$1/\gamma$] -->
     <g transform="translate(204.65 258.47625) scale(0.2 -0.2)">
      <defs>
       <path id="DejaVuSerif-74" d="M 691 2988 
L 184 2988 
L 184 3322 
L 691 3322 
L 691 4353 
L 1269 4353 
L 1269 3322 
L 2350 3322 
L 2350 2988 
L 1269 2988 
L 1269 878 
Q 1269 456 1350 337 
Q 1431 219 1650 219 
Q 1875 219 1978 351 
Q 2081 484 2088 781 
L 2522 781 
Q 2497 328 2275 118 
Q 2053 -91 1600 -91 
Q 1103 -91 897 129 
Q 691 350 691 878 
L 691 2988 
z
" transform="scale(0.015625)"/>
       <path id="DejaVuSerif-69" d="M 622 4353 
Q 622 4497 726 4603 
Q 831 4709 978 4709 
Q 1122 4709 1226 4603 
Q 1331 4497 1331 4353 
Q 1331 4206 1228 4103 
Q 1125 4000 978 4000 
Q 831 4000 726 4103 
Q 622 4206 622 4353 
z
M 1356 331 
L 1900 331 
L 1900 0 
L 231 0 
L 231 331 
L 781 331 
L 781 2988 
L 231 2988 
L 231 3322 
L 1356 3322 
L 1356 331 
z
" transform="scale(0.015625)"/>
       <path id="DejaVuSerif-6d" d="M 3316 2675 
Q 3481 3041 3739 3227 
Q 3997 3413 4341 3413 
Q 4863 3413 5119 3089 
Q 5375 2766 5375 2113 
L 5375 331 
L 5894 331 
L 5894 0 
L 4300 0 
L 4300 331 
L 4800 331 
L 4800 2047 
Q 4800 2556 4650 2772 
Q 4500 2988 4153 2988 
Q 3769 2988 3567 2697 
Q 3366 2406 3366 1850 
L 3366 331 
L 3866 331 
L 3866 0 
L 2291 0 
L 2291 331 
L 2791 331 
L 2791 2069 
Q 2791 2566 2641 2777 
Q 2491 2988 2144 2988 
Q 1759 2988 1557 2697 
Q 1356 2406 1356 1850 
L 1356 331 
L 1856 331 
L 1856 0 
L 263 0 
L 263 331 
L 781 331 
L 781 2994 
L 231 2994 
L 231 3322 
L 1356 3322 
L 1356 2731 
Q 1516 3063 1762 3238 
Q 2009 3413 2322 3413 
Q 2709 3413 2968 3220 
Q 3228 3028 3316 2675 
z
" transform="scale(0.015625)"/>
       <path id="DejaVuSerif-65" d="M 3469 1600 
L 991 1600 
L 991 1575 
Q 991 903 1244 561 
Q 1497 219 1991 219 
Q 2369 219 2611 417 
Q 2853 616 2950 1006 
L 3413 1006 
Q 3275 459 2904 184 
Q 2534 -91 1931 -91 
Q 1203 -91 761 389 
Q 319 869 319 1663 
Q 319 2450 753 2931 
Q 1188 3413 1894 3413 
Q 2647 3413 3050 2948 
Q 3453 2484 3469 1600 
z
M 2791 1931 
Q 2772 2513 2545 2808 
Q 2319 3103 1894 3103 
Q 1497 3103 1269 2806 
Q 1041 2509 991 1931 
L 2791 1931 
z
" transform="scale(0.015625)"/>
       <path id="DejaVuSerif-20" transform="scale(0.015625)"/>
       <path id="DejaVuSerif-5b" d="M 550 4863 
L 2003 4863 
L 2003 4531 
L 1147 4531 
L 1147 -513 
L 2003 -513 
L 2003 -844 
L 550 -844 
L 550 4863 
z
" transform="scale(0.015625)"/>
       <path id="Cmr10-31" d="M 594 0 
L 594 225 
Q 1394 225 1394 428 
L 1394 3788 
Q 1063 3628 556 3628 
L 556 3853 
Q 1341 3853 1741 4263 
L 1831 4263 
Q 1853 4263 1873 4245 
Q 1894 4228 1894 4206 
L 1894 428 
Q 1894 225 2694 225 
L 2694 0 
L 594 0 
z
" transform="scale(0.015625)"/>
       <path id="Cmmi10-3d" d="M 359 -1472 
Q 359 -1453 366 -1447 
L 2591 4722 
Q 2603 4759 2634 4779 
Q 2666 4800 2706 4800 
Q 2763 4800 2798 4765 
Q 2834 4731 2834 4672 
L 2834 4647 
L 609 -1522 
Q 572 -1600 488 -1600 
Q 434 -1600 396 -1562 
Q 359 -1525 359 -1472 
z
" transform="scale(0.015625)"/>
       <path id="Cmmi10-b0" d="M 1888 -1253 
Q 1888 -1109 1952 -834 
Q 2016 -559 2108 -248 
Q 2200 63 2266 263 
Q 2291 581 2291 744 
Q 2291 1156 2209 1511 
Q 2128 1866 1903 2105 
Q 1678 2344 1275 2344 
Q 1063 2344 852 2253 
Q 641 2163 489 2000 
Q 338 1838 281 1631 
Q 269 1594 231 1594 
L 153 1594 
Q 103 1594 103 1650 
L 103 1672 
Q 175 1959 358 2226 
Q 541 2494 805 2661 
Q 1069 2828 1363 2828 
Q 1663 2828 1881 2625 
Q 2100 2422 2231 2109 
Q 2363 1797 2420 1478 
Q 2478 1159 2478 878 
Q 2800 1753 3200 2534 
L 3297 2741 
Q 3316 2759 3341 2759 
L 3419 2759 
Q 3469 2759 3469 2700 
Q 3469 2688 3456 2663 
L 3359 2463 
Q 3081 1909 2848 1340 
Q 2616 772 2450 244 
Q 2425 28 2354 -347 
Q 2284 -722 2184 -1045 
Q 2084 -1369 1984 -1381 
Q 1888 -1381 1888 -1253 
z
" transform="scale(0.015625)"/>
       <path id="DejaVuSerif-5d" d="M 1947 4863 
L 1947 -844 
L 494 -844 
L 494 -513 
L 1350 -513 
L 1350 4531 
L 494 4531 
L 494 4863 
L 1947 4863 
z
" transform="scale(0.015625)"/>
      </defs>
      <use xlink:href="#DejaVuSerif-74" transform="translate(0 0.015625)"/>
      <use xlink:href="#DejaVuSerif-69" transform="translate(40.185547 0.015625)"/>
      <use xlink:href="#DejaVuSerif-6d" transform="translate(72.167969 0.015625)"/>
      <use xlink:href="#DejaVuSerif-65" transform="translate(166.992188 0.015625)"/>
      <use xlink:href="#DejaVuSerif-20" transform="translate(226.171875 0.015625)"/>
      <use xlink:href="#DejaVuSerif-5b" transform="translate(257.958984 0.015625)"/>
      <use xlink:href="#Cmr10-31" transform="translate(296.972656 0.015625)"/>
      <use xlink:href="#Cmmi10-3d" transform="translate(346.972656 0.015625)"/>
      <use xlink:href="#Cmmi10-b0" transform="translate(396.972656 0.015625)"/>
      <use xlink:href="#DejaVuSerif-5d" transform="translate(448.681641 0.015625)"/>
     </g>
    </g>
   </g>
   <g id="matplotlib.axis_2">
    <g id="ytick_1">
     <g id="line2d_4">
      <defs>
       <path id="m52d66df90a" d="M 0 0 
L -3.5 0 
" style="stroke: #000000; stroke-width: 0.8"/>
      </defs>
      <g>
       <use xlink:href="#m52d66df90a" x="96.5" y="204.223636" style="stroke: #000000; stroke-width: 0.8"/>
      </g>
     </g>
     <g id="text_5">
      <!-- 0.0 -->
      <g transform="translate(57.69375 211.822074) scale(0.2 -0.2)">
       <defs>
        <path id="DejaVuSerif-2e" d="M 603 325 
Q 603 500 722 622 
Q 841 744 1019 744 
Q 1191 744 1312 622 
Q 1434 500 1434 325 
Q 1434 153 1312 31 
Q 1191 -91 1019 -91 
Q 841 -91 722 29 
Q 603 150 603 325 
z
" transform="scale(0.015625)"/>
       </defs>
       <use xlink:href="#DejaVuSerif-30"/>
       <use xlink:href="#DejaVuSerif-2e" x="63.623047"/>
       <use xlink:href="#DejaVuSerif-30" x="95.410156"/>
      </g>
     </g>
    </g>
    <g id="ytick_2">
     <g id="line2d_5">
      <g>
       <use xlink:href="#m52d66df90a" x="96.5" y="117.26" style="stroke: #000000; stroke-width: 0.8"/>
      </g>
     </g>
     <g id="text_6">
      <!-- 0.5 -->
      <g transform="translate(57.69375 124.858437) scale(0.2 -0.2)">
       <defs>
        <path id="DejaVuSerif-35" d="M 3219 4666 
L 3219 4153 
L 1081 4153 
L 1081 2816 
Q 1244 2928 1461 2984 
Q 1678 3041 1947 3041 
Q 2703 3041 3140 2622 
Q 3578 2203 3578 1478 
Q 3578 738 3136 323 
Q 2694 -91 1894 -91 
Q 1572 -91 1234 -12 
Q 897 66 544 225 
L 544 1131 
L 897 1131 
Q 925 688 1179 453 
Q 1434 219 1894 219 
Q 2388 219 2653 544 
Q 2919 869 2919 1478 
Q 2919 2084 2655 2407 
Q 2391 2731 1894 2731 
Q 1613 2731 1398 2631 
Q 1184 2531 1019 2322 
L 750 2322 
L 750 4666 
L 3219 4666 
z
" transform="scale(0.015625)"/>
       </defs>
       <use xlink:href="#DejaVuSerif-30"/>
       <use xlink:href="#DejaVuSerif-2e" x="63.623047"/>
       <use xlink:href="#DejaVuSerif-35" x="95.410156"/>
      </g>
     </g>
    </g>
    <g id="ytick_3">
     <g id="line2d_6">
      <g>
       <use xlink:href="#m52d66df90a" x="96.5" y="30.296364" style="stroke: #000000; stroke-width: 0.8"/>
      </g>
     </g>
     <g id="text_7">
      <!-- 1.0 -->
      <g transform="translate(57.69375 37.894801) scale(0.2 -0.2)">
       <defs>
        <path id="DejaVuSerif-31" d="M 909 0 
L 909 331 
L 1722 331 
L 1722 4213 
L 781 3603 
L 781 4013 
L 1919 4750 
L 2350 4750 
L 2350 331 
L 3163 331 
L 3163 0 
L 909 0 
z
" transform="scale(0.015625)"/>
       </defs>
       <use xlink:href="#DejaVuSerif-31"/>
       <use xlink:href="#DejaVuSerif-2e" x="63.623047"/>
       <use xlink:href="#DejaVuSerif-30" x="95.410156"/>
      </g>
     </g>
    </g>
    <g id="text_8">
     <!-- ⟨n⟩ -->
     <g transform="translate(49.534375 131.50375) rotate(-90) scale(0.2 -0.2)">
      <defs>
       <path id="DejaVuSerif-27e8" d="M 572 2006 
L 1453 4856 
L 1984 4856 
L 1103 2006 
L 1984 -844 
L 1453 -844 
L 572 2006 
z
" transform="scale(0.015625)"/>
       <path id="DejaVuSerif-6e" d="M 263 0 
L 263 331 
L 781 331 
L 781 2988 
L 231 2988 
L 231 3322 
L 1356 3322 
L 1356 2731 
Q 1516 3069 1770 3241 
Q 2025 3413 2363 3413 
Q 2913 3413 3172 3097 
Q 3431 2781 3431 2113 
L 3431 331 
L 3944 331 
L 3944 0 
L 2356 0 
L 2356 331 
L 2853 331 
L 2853 1931 
Q 2853 2541 2703 2767 
Q 2553 2994 2175 2994 
Q 1775 2994 1565 2701 
Q 1356 2409 1356 1850 
L 1356 331 
L 1856 331 
L 1856 0 
L 263 0 
z
" transform="scale(0.015625)"/>
       <path id="DejaVuSerif-27e9" d="M 1925 2006 
L 1044 -844 
L 513 -844 
L 1394 2006 
L 513 4856 
L 1044 4856 
L 1925 2006 
z
" transform="scale(0.015625)"/>
      </defs>
      <use xlink:href="#DejaVuSerif-27e8"/>
      <use xlink:href="#DejaVuSerif-6e" x="39.013672"/>
      <use xlink:href="#DejaVuSerif-27e9" x="103.417969"/>
     </g>
    </g>
   </g>
   <g id="line2d_7">
    <path d="M 110.768182 30.296364 
L 111.33948 101.058658 
L 111.910779 143.034724 
L 112.482078 167.931063 
L 113.053376 182.696283 
L 113.624675 191.455613 
L 114.195973 196.6506 
L 114.767272 199.731825 
L 115.33857 201.559272 
L 115.909869 202.643075 
L 116.481168 203.286176 
L 117.338115 203.795478 
L 118.480713 204.072969 
L 120.194608 204.192205 
L 125.621945 204.223416 
L 167.898039 204.223636 
L 168.183688 195.033019 
L 169.326285 123.401506 
L 169.611935 114.598122 
L 169.897584 110.274233 
L 170.183233 109.706963 
L 170.468883 112.11139 
L 171.040181 122.604982 
L 173.039726 169.102022 
L 173.896674 182.385596 
L 174.467973 188.685924 
L 175.039271 193.336068 
L 175.61057 196.691113 
L 176.181868 199.069259 
L 176.753167 200.72994 
L 177.324465 201.875099 
L 177.895764 202.657003 
L 178.752712 203.379894 
L 179.60966 203.774906 
L 180.752257 204.033441 
L 182.751802 204.182821 
L 187.893489 204.222962 
L 225.027896 204.223636 
L 225.884844 185.63317 
L 226.170493 188.45063 
L 227.027441 203.432432 
L 227.31309 204.079059 
L 227.59874 201.556814 
L 228.170038 188.988723 
L 229.598285 148.964996 
L 230.169583 140.340059 
L 230.455233 138.243013 
L 230.740882 137.507699 
L 231.026531 137.986983 
L 231.31218 139.50389 
L 231.883479 144.869283 
L 232.740427 156.110997 
L 234.168673 175.194481 
L 235.025621 184.201687 
L 235.882569 190.943867 
L 236.739517 195.693477 
L 237.596465 198.891079 
L 238.453413 200.965224 
L 239.31036 202.272259 
L 240.167308 203.075077 
L 241.024256 203.557668 
L 242.166853 203.908242 
L 243.880749 204.124707 
L 247.022891 204.212865 
L 264.161848 204.223636 
L 282.157753 204.223636 
L 282.443402 198.773719 
L 282.729052 195.96493 
L 283.014701 198.775839 
L 283.30035 202.73009 
L 283.586 204.211923 
L 283.871649 202.194109 
L 285.014246 184.436618 
L 285.299895 183.870485 
L 285.585545 185.48117 
L 286.156843 192.831976 
L 286.728142 200.644038 
L 287.013791 203.135256 
L 287.29944 204.197253 
L 287.58509 203.702698 
L 287.870739 201.70149 
L 288.442037 193.972565 
L 290.441582 158.516916 
L 291.012881 153.205457 
L 291.29853 151.77291 
L 291.58418 151.100095 
L 291.869829 151.147016 
L 292.155478 151.828387 
L 292.726777 154.766588 
L 293.583725 161.779377 
L 295.868919 182.915188 
L 296.725867 188.994691 
L 297.582815 193.684387 
L 298.439762 197.129245 
L 299.29671 199.561805 
L 300.153658 201.225186 
L 301.010606 202.331049 
L 301.867554 203.049074 
L 302.724502 203.505592 
L 303.867099 203.858888 
L 305.580995 204.096655 
L 308.437487 204.203588 
L 319.006511 204.223625 
L 339.28761 204.223636 
L 339.57326 200.023898 
L 339.858909 200.278458 
L 340.144558 203.381677 
L 340.430207 204.015689 
L 340.715857 201.27453 
L 341.287155 194.219081 
L 341.572805 193.620318 
L 341.858454 195.33949 
L 342.715402 203.715532 
L 343.001051 204.161889 
L 343.2867 202.799193 
L 343.857999 196.176658 
L 344.429297 188.682294 
L 344.714947 186.113853 
L 345.000596 184.806093 
L 345.286245 184.842775 
L 345.571895 186.127901 
L 346.143193 191.38263 
L 347.000141 200.576231 
L 347.28579 202.672235 
L 347.57144 203.914219 
L 347.857089 204.202885 
L 348.142738 203.515693 
L 348.428387 201.896753 
L 348.999686 196.314683 
L 350.142283 180.294826 
L 350.999231 169.102095 
L 351.57053 163.724281 
L 352.141828 160.445997 
L 352.427477 159.60111 
L 352.713127 159.261972 
L 352.998776 159.395087 
L 353.284425 159.946995 
L 353.855724 162.126812 
L 354.712672 167.281382 
L 357.854814 188.974252 
L 358.711762 193.178476 
L 359.56871 196.432912 
L 360.425657 198.855225 
L 361.282605 200.601871 
L 362.139553 201.825529 
L 362.996501 202.663076 
L 363.853449 203.223525 
L 364.996046 203.682895 
L 366.424292 203.980656 
L 368.423837 204.148296 
L 372.708577 204.218419 
L 396.131818 204.223636 
L 396.131818 204.223636 
" clip-path="url(#p1bcff4cd58)" style="fill: none; stroke: #1f77b4; stroke-width: 1.5; stroke-linecap: square"/>
   </g>
   <g id="line2d_8">
    <path d="M 110.768182 30.296364 
L 111.33948 101.058658 
L 111.910779 143.034724 
L 112.482078 167.931063 
L 113.053376 182.696283 
L 113.624675 191.455613 
L 114.195973 196.6506 
L 114.767272 199.731825 
L 115.33857 201.559272 
L 115.909869 202.643075 
L 116.481168 203.286176 
L 117.338115 203.795478 
L 118.480713 204.072969 
L 120.194608 204.192205 
L 125.621945 204.223416 
L 139.33311 204.223636 
L 139.61876 195.035057 
L 140.761357 123.408043 
L 141.047006 114.602419 
L 141.332655 110.276679 
L 141.618305 109.71857 
L 141.903954 112.105033 
L 142.475253 122.608244 
L 144.474798 169.102475 
L 145.331745 182.386733 
L 145.903044 188.684629 
L 146.474343 193.335738 
L 147.045641 196.691224 
L 147.61694 199.068496 
L 148.188238 200.730114 
L 148.759537 201.875171 
L 149.330835 202.656958 
L 150.187783 203.379695 
L 151.044731 203.774874 
L 152.187328 204.033467 
L 154.186873 204.182825 
L 159.32856 204.222961 
L 167.898039 204.223635 
L 168.754987 185.618337 
L 169.040636 188.443152 
L 169.897584 203.430863 
L 170.183233 204.079289 
L 170.468883 201.560789 
L 171.040181 188.993604 
L 172.468428 148.964158 
L 173.039726 140.340895 
L 173.325375 138.252848 
L 173.611025 137.515881 
L 173.896674 137.990158 
L 174.182323 139.506358 
L 174.753622 144.873012 
L 175.61057 156.112366 
L 177.038816 175.195862 
L 177.895764 184.200658 
L 178.752712 190.943444 
L 179.60966 195.693018 
L 180.466608 198.8908 
L 181.323555 200.965148 
L 182.180503 202.271335 
L 183.037451 203.074864 
L 183.894399 203.557614 
L 185.036996 203.908067 
L 186.750892 204.124682 
L 189.893034 204.212837 
L 196.462968 204.22356 
L 196.748617 198.814783 
L 197.034266 196.01 
L 197.319915 198.805205 
L 197.605565 202.746362 
L 197.891214 204.210537 
L 198.176863 202.178039 
L 199.31946 184.406702 
L 199.60511 183.843754 
L 199.890759 185.458933 
L 200.462058 192.820844 
L 201.033356 200.635109 
L 201.319005 203.132963 
L 201.604655 204.196574 
L 201.890304 203.704417 
L 202.175953 201.704698 
L 202.747252 193.97963 
L 204.746797 158.527257 
L 205.318095 153.21957 
L 205.603745 151.767897 
L 205.889394 151.110171 
L 206.175043 151.150508 
L 206.460693 151.832717 
L 207.031991 154.767959 
L 207.888939 161.782622 
L 210.459783 185.098502 
L 211.31673 190.706812 
L 212.173678 194.959761 
L 213.030626 198.039805 
L 213.887574 200.190324 
L 214.744522 201.646632 
L 215.60147 202.606288 
L 216.458418 203.224591 
L 217.601015 203.71035 
L 219.029261 204.007183 
L 221.028806 204.162138 
L 225.027896 204.219302 
L 225.313545 199.779814 
L 225.599195 200.065108 
L 225.884844 203.289403 
L 226.170493 204.053169 
L 226.456143 201.406927 
L 227.027441 194.428845 
L 227.31309 193.80852 
L 227.59874 195.504508 
L 228.455688 203.744 
L 228.741337 204.152779 
L 229.026986 202.758651 
L 229.598285 196.101796 
L 230.169583 188.599274 
L 230.455233 186.027071 
L 230.740882 184.723123 
L 231.026531 184.771653 
L 231.31218 186.066881 
L 231.883479 191.339745 
L 232.740427 200.558965 
L 233.026076 202.662017 
L 233.311725 203.910159 
L 233.597375 204.203874 
L 233.883024 203.52023 
L 234.168673 201.908058 
L 234.739972 196.32917 
L 235.882569 180.309548 
L 236.739517 169.117298 
L 237.310815 163.735943 
L 237.882114 160.448674 
L 238.167763 159.612755 
L 238.453413 159.27345 
L 238.739062 159.401507 
L 239.024711 159.953655 
L 239.59601 162.128532 
L 240.452958 167.286658 
L 243.5951 188.974899 
L 244.452048 193.177895 
L 245.308995 196.43211 
L 246.165943 198.855349 
L 247.022891 200.602037 
L 247.879839 201.825112 
L 248.736787 202.663089 
L 249.593735 203.223129 
L 250.736332 203.682681 
L 252.164578 203.980605 
L 253.592825 204.117824 
L 253.878474 201.977311 
L 254.449772 204.123516 
L 254.735422 201.642564 
L 255.021071 198.12236 
L 255.30672 196.476815 
L 255.59237 197.590903 
L 256.163668 203.043726 
L 256.449317 204.215117 
L 256.734967 203.418994 
L 257.306265 198.029301 
L 257.591915 195.341681 
L 257.877564 193.764861 
L 258.163213 193.628485 
L 258.448862 194.861655 
L 259.59146 203.647695 
L 259.877109 204.223608 
L 260.162758 203.628531 
L 260.448407 201.946551 
L 261.019706 196.393509 
L 261.876654 188.004883 
L 262.162303 186.434876 
L 262.447952 185.760368 
L 262.733602 186.012704 
L 263.019251 187.098569 
L 263.59055 191.197502 
L 264.733147 201.108828 
L 265.304445 203.832772 
L 265.590095 204.222274 
L 265.875744 203.91852 
L 266.161393 202.938255 
L 266.732692 199.176912 
L 267.58964 190.426735 
L 269.017886 174.687332 
L 269.589185 170.006634 
L 270.160483 166.799163 
L 270.731782 165.157928 
L 271.017431 164.889336 
L 271.30308 164.973211 
L 271.58873 165.369014 
L 272.160028 166.985935 
L 272.731327 169.462899 
L 273.873924 175.877213 
L 275.873469 187.483028 
L 277.016066 192.745297 
L 277.873014 195.830017 
L 278.729962 198.224047 
L 279.58691 200.021414 
L 280.443857 201.334017 
L 281.300805 202.27141 
L 282.157753 202.923899 
L 282.443402 197.24718 
L 283.014701 204.178731 
L 283.586 202.382822 
L 283.871649 202.871201 
L 284.157298 203.976281 
L 284.442947 204.049888 
L 284.728597 202.333159 
L 285.585545 194.354723 
L 285.871194 194.238282 
L 286.156843 195.814387 
L 287.013791 203.322036 
L 287.29944 204.209048 
L 287.58509 203.744473 
L 287.870739 202.145358 
L 288.727687 195.535532 
L 289.013336 194.366173 
L 289.298985 194.178125 
L 289.584635 194.947005 
L 290.155933 198.47628 
L 290.727232 202.392372 
L 291.012881 203.674822 
L 291.29853 204.213985 
L 291.58418 203.921619 
L 291.869829 202.820471 
L 292.441127 198.730865 
L 293.583725 189.182781 
L 293.869374 187.746901 
L 294.155023 186.959067 
L 294.440672 186.851351 
L 294.726322 187.409428 
L 295.011971 188.568508 
L 295.58327 192.200701 
L 296.725867 200.70488 
L 297.297165 203.419074 
L 297.582815 204.073351 
L 297.868464 204.207685 
L 298.154113 203.815775 
L 298.439762 202.916074 
L 299.011061 199.763043 
L 299.868009 192.616639 
L 301.581905 177.07592 
L 302.153203 173.311333 
L 302.724502 170.706935 
L 303.2958 169.302485 
L 303.58145 169.033682 
L 303.867099 169.048692 
L 304.152748 169.307729 
L 304.724047 170.498569 
L 305.295345 172.414843 
L 306.152293 176.190687 
L 309.294435 191.256648 
L 310.437032 195.29559 
L 310.722682 196.14301 
L 311.008331 202.492288 
L 311.29398 198.888091 
L 311.865279 187.327079 
L 312.150928 189.081928 
L 312.722227 200.320307 
L 313.007876 203.465741 
L 313.293525 204.222993 
L 313.864824 203.61585 
L 314.436122 204.192772 
L 314.721772 204.010789 
L 315.007421 202.792968 
L 315.57872 197.493577 
L 316.150018 192.208077 
L 316.435667 191.154776 
L 316.721317 191.542957 
L 317.006966 193.229679 
L 318.149563 203.217652 
L 318.435212 204.147261 
L 318.720862 204.033515 
L 319.006511 203.011161 
L 320.434757 195.32967 
L 320.720407 195.214813 
L 321.006056 195.796152 
L 321.577355 198.504969 
L 322.434302 203.133489 
L 322.719952 203.96975 
L 323.005601 204.220561 
L 323.29125 203.841433 
L 323.5769 202.853061 
L 324.148198 199.420915 
L 325.576445 189.416734 
L 325.862094 188.339267 
L 326.147743 187.783753 
L 326.433392 187.767768 
L 326.719042 188.270846 
L 327.004691 189.245985 
L 327.57599 192.289976 
L 329.004236 201.383984 
L 329.575535 203.578189 
L 329.861184 204.102251 
L 330.146833 204.211364 
L 330.432482 203.900495 
L 330.718132 203.183419 
L 331.28943 200.644904 
L 332.146378 194.785338 
L 334.145923 179.328832 
L 334.717222 176.123735 
L 335.28852 173.857266 
L 335.859819 172.562648 
L 336.145468 172.271237 
L 336.431117 172.199603 
L 336.716767 172.348321 
L 337.288065 173.203313 
L 337.859364 174.689979 
L 338.716312 177.761827 
L 339.28761 180.149857 
L 339.57326 168.299346 
L 340.144558 193.984412 
L 340.430207 196.7412 
L 340.715857 194.635537 
L 341.287155 181.437083 
L 341.572805 175.057743 
L 341.858454 172.496413 
L 342.144103 174.691631 
L 342.715402 187.942973 
L 343.2867 199.736739 
L 343.57235 202.609531 
L 343.857999 203.845967 
L 344.143648 204.185375 
L 344.714947 204.213146 
L 345.000596 204.076452 
L 345.286245 203.540208 
L 345.571895 202.32821 
L 346.143193 197.616873 
L 347.000141 189.137896 
L 347.28579 187.680738 
L 347.57144 187.414221 
L 347.857089 188.36874 
L 348.428387 193.079533 
L 349.285335 201.503754 
L 349.570985 203.236706 
L 349.856634 204.111732 
L 350.142283 204.131543 
L 350.427932 203.416239 
L 350.999231 200.647372 
L 351.57053 197.786663 
L 351.856179 196.859749 
L 352.141828 196.435917 
L 352.427477 196.556867 
L 352.713127 197.176224 
L 353.284425 199.480063 
L 354.141373 203.235076 
L 354.427022 203.950961 
L 354.712672 204.222674 
L 354.998321 204.005178 
L 355.28397 203.298946 
L 355.855269 200.620039 
L 357.569165 190.072551 
L 357.854814 189.105917 
L 358.140463 188.555487 
L 358.426112 188.451494 
L 358.711762 188.772289 
L 358.997411 189.495286 
L 359.56871 191.93452 
L 361.568255 202.695937 
L 362.139553 204.049622 
L 362.425202 204.223636 
L 362.710852 204.05034 
L 362.996501 203.538247 
L 363.5678 201.571759 
L 364.139098 198.567191 
L 365.281695 190.79736 
L 366.709942 181.363104 
L 367.56689 177.406704 
L 367.852539 176.474442 
L 368.138188 185.996996 
L 368.709487 158.18408 
L 368.995136 158.60551 
L 369.852084 188.182747 
L 370.137733 191.630585 
L 370.423382 191.466264 
L 370.709032 188.238993 
L 371.28033 174.788287 
L 371.851629 161.094505 
L 372.137278 158.437559 
L 372.422927 159.74518 
L 372.708577 164.585592 
L 374.136823 198.098654 
L 374.422472 200.932563 
L 374.708122 202.499968 
L 374.993771 203.239316 
L 375.27942 203.486542 
L 375.56507 203.40655 
L 375.850719 202.996298 
L 376.136368 202.145682 
L 376.422017 200.724631 
L 376.993316 196.037902 
L 378.135913 184.657266 
L 378.421562 183.230696 
L 378.707212 182.863461 
L 378.992861 183.601493 
L 379.27851 185.353856 
L 379.849809 190.986737 
L 380.706757 200.099159 
L 381.278055 203.569989 
L 381.563705 204.179949 
L 381.849354 204.093855 
L 382.135003 203.44175 
L 383.56325 198.122609 
L 383.848899 197.751572 
L 384.134548 197.790969 
L 384.420197 198.221429 
L 384.991496 199.966978 
L 385.848444 203.084647 
L 386.134093 203.789413 
L 386.419742 204.171307 
L 386.705392 204.177916 
L 386.991041 203.786956 
L 387.27669 203.010112 
L 387.847989 200.468169 
L 389.561885 190.884437 
L 390.133183 189.277466 
L 390.418832 189.010652 
L 390.704482 189.115683 
L 390.990131 189.571782 
L 391.56143 191.41305 
L 392.418377 195.679381 
L 393.560975 201.468239 
L 394.132273 203.362152 
L 394.417922 203.922517 
L 394.703572 204.196099 
L 394.989221 204.176567 
L 395.27487 203.865643 
L 395.56052 203.273146 
L 396.131818 201.32421 
L 396.131818 201.32421 
" clip-path="url(#p1bcff4cd58)" style="fill: none; stroke: #ff7f0e; stroke-width: 1.5; stroke-linecap: square"/>
   </g>
   <g id="patch_3">
    <path d="M 96.5 212.92 
L 96.5 21.6 
" style="fill: none; stroke: #000000; stroke-width: 0.8; stroke-linejoin: miter; stroke-linecap: square"/>
   </g>
   <g id="patch_4">
    <path d="M 410.4 212.92 
L 410.4 21.6 
" style="fill: none; stroke: #000000; stroke-width: 0.8; stroke-linejoin: miter; stroke-linecap: square"/>
   </g>
   <g id="patch_5">
    <path d="M 96.5 212.92 
L 410.4 212.92 
" style="fill: none; stroke: #000000; stroke-width: 0.8; stroke-linejoin: miter; stroke-linecap: square"/>
   </g>
   <g id="patch_6">
    <path d="M 96.5 21.6 
L 410.4 21.6 
" style="fill: none; stroke: #000000; stroke-width: 0.8; stroke-linejoin: miter; stroke-linecap: square"/>
   </g>
   <g id="legend_1">
    <g id="patch_7">
     <path d="M 238.646875 96.3125 
L 396.4 96.3125 
Q 400.4 96.3125 400.4 92.3125 
L 400.4 35.6 
Q 400.4 31.6 396.4 31.6 
L 238.646875 31.6 
Q 234.646875 31.6 234.646875 35.6 
L 234.646875 92.3125 
Q 234.646875 96.3125 238.646875 96.3125 
z
" style="fill: #ffffff; opacity: 0.8; stroke: #cccccc; stroke-linejoin: miter"/>
    </g>
    <g id="line2d_9">
     <path d="M 242.646875 47.796875 
L 262.646875 47.796875 
L 282.646875 47.796875 
" style="fill: none; stroke: #1f77b4; stroke-width: 1.5; stroke-linecap: square"/>
    </g>
    <g id="text_9">
     <!-- emitter 1 -->
     <g transform="translate(298.646875 54.796875) scale(0.2 -0.2)">
      <defs>
       <path id="DejaVuSerif-72" d="M 3059 3328 
L 3059 2497 
L 2728 2497 
Q 2713 2744 2591 2866 
Q 2469 2988 2234 2988 
Q 1809 2988 1582 2694 
Q 1356 2400 1356 1850 
L 1356 331 
L 2022 331 
L 2022 0 
L 263 0 
L 263 331 
L 781 331 
L 781 2994 
L 231 2994 
L 231 3322 
L 1356 3322 
L 1356 2731 
Q 1525 3078 1790 3245 
Q 2056 3413 2438 3413 
Q 2578 3413 2733 3391 
Q 2888 3369 3059 3328 
z
" transform="scale(0.015625)"/>
      </defs>
      <use xlink:href="#DejaVuSerif-65"/>
      <use xlink:href="#DejaVuSerif-6d" x="59.179688"/>
      <use xlink:href="#DejaVuSerif-69" x="154.003906"/>
      <use xlink:href="#DejaVuSerif-74" x="185.986328"/>
      <use xlink:href="#DejaVuSerif-74" x="226.171875"/>
      <use xlink:href="#DejaVuSerif-65" x="266.357422"/>
      <use xlink:href="#DejaVuSerif-72" x="325.537109"/>
      <use xlink:href="#DejaVuSerif-20" x="373.339844"/>
      <use xlink:href="#DejaVuSerif-31" x="405.126953"/>
     </g>
    </g>
    <g id="line2d_10">
     <path d="M 242.646875 77.153125 
L 262.646875 77.153125 
L 282.646875 77.153125 
" style="fill: none; stroke: #ff7f0e; stroke-width: 1.5; stroke-linecap: square"/>
    </g>
    <g id="text_10">
     <!-- emitter 2 -->
     <g transform="translate(298.646875 84.153125) scale(0.2 -0.2)">
      <use xlink:href="#DejaVuSerif-65"/>
      <use xlink:href="#DejaVuSerif-6d" x="59.179688"/>
      <use xlink:href="#DejaVuSerif-69" x="154.003906"/>
      <use xlink:href="#DejaVuSerif-74" x="185.986328"/>
      <use xlink:href="#DejaVuSerif-74" x="226.171875"/>
      <use xlink:href="#DejaVuSerif-65" x="266.357422"/>
      <use xlink:href="#DejaVuSerif-72" x="325.537109"/>
      <use xlink:href="#DejaVuSerif-20" x="373.339844"/>
      <use xlink:href="#DejaVuSerif-32" x="405.126953"/>
     </g>
    </g>
   </g>
  </g>
 </g>
 <defs>
  <clipPath id="p1bcff4cd58">
   <rect x="96.5" y="21.6" width="313.9" height="191.32"/>
  </clipPath>
 </defs>
</svg>
