<?xml version="1.0" encoding="UTF-8" standalone="no"?>
<!-- Created with Inkscape (http://www.inkscape.org/) -->

<svg
   width="199.02502mm"
   height="65.263672mm"
   viewBox="0 0 199.02502 65.263672"
   version="1.1"
   id="svg6724"
   inkscape:version="1.2.2 (732a01da63, 2022-12-09)"
   sodipodi:docname="feedback.svg"
   xmlns:inkscape="http://www.inkscape.org/namespaces/inkscape"
   xmlns:sodipodi="http://sodipodi.sourceforge.net/DTD/sodipodi-0.dtd"
   xmlns="http://www.w3.org/2000/svg"
   xmlns:svg="http://www.w3.org/2000/svg">
  <sodipodi:namedview
     id="namedview6726"
     pagecolor="#ffffff"
     bordercolor="#000000"
     borderopacity="0.25"
     inkscape:showpageshadow="2"
     inkscape:pageopacity="0.0"
     inkscape:pagecheckerboard="0"
     inkscape:deskcolor="#d1d1d1"
     inkscape:document-units="mm"
     showgrid="false"
     inkscape:zoom="0.25"
     inkscape:cx="-494"
     inkscape:cy="-564"
     inkscape:window-width="1600"
     inkscape:window-height="829"
     inkscape:window-x="-8"
     inkscape:window-y="-8"
     inkscape:window-maximized="1"
     inkscape:current-layer="layer1" />
  <defs
     id="defs6721">
    <marker
       style="overflow:visible"
       id="Arrow3"
       refX="0"
       refY="0"
       orient="auto-start-reverse"
       inkscape:stockid="Arrow3"
       markerWidth="4.2071066"
       markerHeight="7"
       viewBox="0 0 4.2071068 7"
       inkscape:isstock="true"
       inkscape:collect="always"
       preserveAspectRatio="xMidYMid">
      <path
         style="fill:none;stroke:context-stroke;stroke-width:1;stroke-linecap:round"
         d="M 3,-3 0,0 3,3"
         id="arrow3"
         transform="rotate(180,0.125,0)"
         sodipodi:nodetypes="ccc" />
    </marker>
    <clipPath
       id="clipPath8002">
      <path
         clip-rule="nonzero"
         d="m 22,5 h 8.640625 v 6.308594 H 22 Z m 0,0"
         id="path75" />
    </clipPath>
    <marker
       style="overflow:visible"
       id="Arrow1"
       refX="0"
       refY="0"
       orient="auto-start-reverse"
       inkscape:stockid="Arrow1"
       markerWidth="4.0606604"
       markerHeight="6.7071066"
       viewBox="0 0 4.0606602 6.7071068"
       inkscape:isstock="true"
       inkscape:collect="always"
       preserveAspectRatio="xMidYMid">
      <path
         style="fill:none;stroke:context-stroke;stroke-width:1;stroke-linecap:butt"
         d="M 3,-3 0,0 3,3"
         id="path5057"
         transform="rotate(180,0.125,0)"
         sodipodi:nodetypes="ccc" />
    </marker>
    <clipPath
       id="clipPath2666">
      <path
         clip-rule="nonzero"
         d="m 18,7 h 8 v 6.992188 h -8 z m 0,0"
         id="path9766" />
    </clipPath>
    <clipPath
       id="clipPath7222-3">
      <path
         clip-rule="nonzero"
         d="m 18,7 h 7 v 6.992188 h -7 z m 0,0"
         id="path4350-2" />
    </clipPath>
    <clipPath
       id="clipPath9991">
      <path
         clip-rule="nonzero"
         d="m 7,0 h 5 V 11.953125 H 7 Z m 0,0"
         id="path8105" />
    </clipPath>
    <clipPath
       id="clipPath7545">
      <path
         clip-rule="nonzero"
         d="M 10,0 H 43 V 107.59766 H 10 Z m 0,0"
         id="path5178" />
    </clipPath>
  </defs>
  <g
     inkscape:label="Lag 1"
     inkscape:groupmode="layer"
     id="layer1"
     transform="translate(-4.1186439,-65.617674)">
    <path
       style="fill:none;stroke:#000000;stroke-width:1.281;stroke-dasharray:none;stroke-opacity:1"
       d="m 95.128496,111.86431 -87.7577239,0.3606"
       id="path1016"
       inkscape:export-filename="mirror_feedback.pdf"
       inkscape:export-xdpi="96"
       inkscape:export-ydpi="96" />
    <path
       style="fill:none;stroke:#000000;stroke-width:1.281;stroke-dasharray:none;stroke-opacity:1"
       d="M 203.14183,111.55512 94.324694,111.8685"
       id="path1028"
       inkscape:export-filename="scripts\open_quantum_optics\CavityWaveguide\docs\src\inputoutput_onewaveguide.png"
       inkscape:export-xdpi="96"
       inkscape:export-ydpi="96" />
    <path
       style="display:inline;opacity:1;fill:#ff0000;fill-opacity:0;stroke:#2500ff;stroke-width:0.634;stroke-dasharray:none;stroke-opacity:1;marker-end:url(#Arrow3)"
       d="m 62.786662,119.24007 c 7.735955,4.41717 34.468052,0.83698 36.468023,-10.22829"
       id="path8919-3"
       sodipodi:nodetypes="cc" />
    <g
       id="g38481"
       transform="translate(-0.79160306,21.273691)">
      <circle
         style="fill:none;stroke:#000000;stroke-width:0.975146;stroke-dasharray:none"
         id="circle1018"
         cx="105.98513"
         cy="77.604485"
         r="9.7514877" />
      <g
         id="g38474"
         transform="translate(-0.22392369,1.2421279)">
        <path
           style="fill:none;stroke:#000000;stroke-width:1.15389;stroke-dasharray:none;stroke-opacity:1"
           d="m 112.73966,72.735758 -13.0612,-0.01675"
           id="path12049"
           inkscape:export-filename="scripts\open_quantum_optics\CavityWaveguide\docs\src\inputoutput_onewaveguide.png"
           inkscape:export-xdpi="96"
           inkscape:export-ydpi="96"
           sodipodi:nodetypes="cc" />
        <path
           style="fill:none;stroke:#000000;stroke-width:1.15389;stroke-dasharray:none;stroke-opacity:1"
           d="m 112.73966,81.513198 -13.061212,-0.0168"
           id="path12147"
           inkscape:export-filename="scripts\open_quantum_optics\CavityWaveguide\docs\src\inputoutput_onewaveguide.png"
           inkscape:export-xdpi="96"
           inkscape:export-ydpi="96"
           sodipodi:nodetypes="cc" />
        <circle
           style="fill:#000000;fill-opacity:1;stroke:#000000;stroke-width:0.190381;stroke-dasharray:none;stroke-opacity:1"
           id="circle12854"
           cx="106.20906"
           cy="72.633583"
           r="1.9038217" />
      </g>
    </g>
    <path
       style="display:inline;opacity:1;fill:#ff0000;fill-opacity:0;stroke:#1c00ff;stroke-width:0.634;stroke-dasharray:none;stroke-opacity:1;marker-end:url(#Arrow3)"
       d="m 116.24917,94.934626 c 7.07264,-5.416118 19.51662,-4.290769 22.98464,6.405654"
       id="path397"
       sodipodi:nodetypes="cc" />
    <g
       inkscape:label=""
       transform="matrix(1.4559771,0,0,1.4559771,139.01077,86.04268)"
       id="g1845"
       style="fill:#2500ff;fill-opacity:1">
      <g
         fill="#000000"
         fill-opacity="1"
         id="g1813"
         transform="matrix(0.352778,0,0,0.352778,-0.132292,0.0223132)"
         style="fill:#2500ff;fill-opacity:1">
        <g
           id="g1811"
           transform="translate(0,9.6309996)"
           style="fill:#2500ff;fill-opacity:1">
          <path
             d="m 5.15625,-3.71875 c 0.140625,0 0.5,0 0.5,-0.34375 0,-0.234375 -0.21875,-0.234375 -0.390625,-0.234375 h -2.28125 c -1.5,0 -2.609375,1.640625 -2.609375,2.828125 0,0.875 0.59375,1.578125 1.5,1.578125 1.171875,0 2.5,-1.203125 2.5,-2.734375 0,-0.171875 0,-0.65625 -0.3125,-1.09375 z M 1.890625,-0.109375 C 1.390625,-0.109375 1,-0.46875 1,-1.1875 c 0,-0.296875 0.109375,-1.109375 0.46875,-1.703125 0.421875,-0.6875 1.015625,-0.828125 1.359375,-0.828125 0.828125,0 0.90625,0.65625 0.90625,0.96875 0,0.46875 -0.203125,1.28125 -0.53125,1.796875 -0.390625,0.578125 -0.9375,0.84375 -1.3125,0.84375 z m 0,0"
             id="path1809"
             style="fill:#2500ff;fill-opacity:1" />
        </g>
      </g>
      <g
         fill="#000000"
         fill-opacity="1"
         id="g1819"
         transform="matrix(0.352778,0,0,0.352778,-0.132292,0.0223132)"
         style="fill:#2500ff;fill-opacity:1">
        <g
           id="g1817"
           transform="translate(6.0512829,9.6309996)"
           style="fill:#2500ff;fill-opacity:1">
          <path
             d="M 4.609375,-3.375 C 4.65625,-3.59375 4.75,-3.96875 4.75,-4.03125 c 0,-0.171875 -0.140625,-0.265625 -0.28125,-0.265625 -0.125,0 -0.296875,0.078125 -0.375,0.28125 -0.03125,0.0625 -0.5,1.96875 -0.5625,2.234375 C 3.453125,-1.484375 3.4375,-1.3125 3.4375,-1.125 c 0,0.109375 0,0.125 0.015625,0.171875 -0.234375,0.53125 -0.53125,0.84375 -0.921875,0.84375 -0.796875,0 -0.796875,-0.734375 -0.796875,-0.90625 0,-0.3125 0.046875,-0.703125 0.515625,-1.9375 0.109375,-0.296875 0.171875,-0.4375 0.171875,-0.640625 0,-0.4375 -0.328125,-0.8125 -0.8125,-0.8125 -0.953125,0 -1.3125,1.453125 -1.3125,1.53125 0,0.109375 0.09375,0.109375 0.109375,0.109375 0.109375,0 0.109375,-0.03125 0.15625,-0.1875 C 0.84375,-3.875 1.21875,-4.1875 1.578125,-4.1875 c 0.09375,0 0.25,0.015625 0.25,0.328125 0,0.25 -0.109375,0.53125 -0.1875,0.703125 -0.4375,1.171875 -0.546875,1.625 -0.546875,2.015625 0,0.90625 0.65625,1.25 1.40625,1.25 0.171875,0 0.640625,0 1.03125,-0.703125 0.265625,0.640625 0.953125,0.703125 1.25,0.703125 0.75,0 1.1875,-0.625 1.453125,-1.21875 0.328125,-0.78125 0.65625,-2.125 0.65625,-2.59375 0,-0.546875 -0.265625,-0.703125 -0.4375,-0.703125 -0.25,0 -0.5,0.265625 -0.5,0.484375 0,0.125 0.0625,0.1875 0.140625,0.265625 0.109375,0.109375 0.359375,0.359375 0.359375,0.84375 0,0.34375 -0.28125,1.3125 -0.546875,1.828125 -0.25,0.53125 -0.609375,0.875 -1.09375,0.875 -0.46875,0 -0.734375,-0.296875 -0.734375,-0.875 0,-0.265625 0.0625,-0.578125 0.109375,-0.71875 z m 0,0"
             id="path1815"
             style="fill:#2500ff;fill-opacity:1" />
        </g>
      </g>
      <g
         fill="#000000"
         fill-opacity="1"
         id="g1825"
         transform="matrix(0.352778,0,0,0.352778,-0.132292,0.0223132)"
         style="fill:#2500ff;fill-opacity:1">
        <g
           id="g1823"
           transform="translate(13.451,4.8429999)"
           style="fill:#2500ff;fill-opacity:1">
          <path
             d="m 1.90625,-2.90625 c 0.109375,0 0.171875,0.015625 0.390625,0.0625 0.21875,0.0625 0.390625,0.109375 0.515625,0.109375 0.28125,0 0.296875,-0.203125 0.296875,-0.265625 0,-0.0625 -0.015625,-0.28125 -0.296875,-0.28125 -0.125,0 -0.296875,0.046875 -0.515625,0.109375 -0.21875,0.0625 -0.28125,0.0625 -0.390625,0.078125 0.015625,-0.25 0.0625,-0.53125 0.09375,-0.75 0.03125,-0.140625 0.09375,-0.5 0.09375,-0.734375 0,-0.21875 -0.09375,-0.328125 -0.265625,-0.328125 -0.15625,0 -0.28125,0.078125 -0.28125,0.328125 0,0.21875 0.0625,0.578125 0.109375,0.8125 0.015625,0.078125 0.078125,0.40625 0.078125,0.671875 C 1.640625,-3.109375 1.5625,-3.109375 1.359375,-3.171875 1.140625,-3.234375 0.96875,-3.28125 0.84375,-3.28125 c -0.28125,0 -0.3125,0.21875 -0.3125,0.28125 0,0.046875 0.03125,0.265625 0.3125,0.265625 0.125,0 0.296875,-0.046875 0.515625,-0.109375 0.203125,-0.046875 0.28125,-0.0625 0.375,-0.0625 0,0.171875 -0.0625,0.390625 -0.09375,0.53125 -0.09375,0.4375 -0.09375,0.484375 -0.09375,0.84375 0,1.34375 0.140625,2.78125 0.15625,2.921875 0.015625,0.0625 0.03125,0.09375 0.125,0.09375 0.109375,0 0.109375,-0.03125 0.125,-0.125 0,-0.015625 0.046875,-0.625 0.078125,-1.046875 0.03125,-0.609375 0.0625,-1.21875 0.0625,-1.84375 0,-0.359375 0,-0.40625 -0.09375,-0.859375 -0.015625,-0.0625 -0.078125,-0.34375 -0.09375,-0.515625 z m 0,0"
             id="path1821"
             style="fill:#2500ff;fill-opacity:1" />
        </g>
      </g>
      <g
         fill="#000000"
         fill-opacity="1"
         id="g1831"
         transform="matrix(0.352778,0,0,0.352778,-0.132292,0.0223132)"
         style="fill:#2500ff;fill-opacity:1">
        <g
           id="g1829"
           transform="translate(13.183,12.636)"
           style="fill:#2500ff;fill-opacity:1">
          <path
             d="m 2.1875,-4.625 c 0,-0.015625 0.015625,-0.109375 0.015625,-0.109375 0,-0.046875 -0.015625,-0.109375 -0.109375,-0.109375 -0.140625,0 -0.71875,0.0625 -0.890625,0.078125 -0.046875,0 -0.15625,0.015625 -0.15625,0.15625 0,0.09375 0.109375,0.09375 0.1875,0.09375 0.328125,0 0.328125,0.0625 0.328125,0.109375 0,0.046875 -0.015625,0.09375 -0.015625,0.15625 L 0.5625,-0.3125 c -0.046875,0.125 -0.046875,0.140625 -0.046875,0.15625 0,0.109375 0.09375,0.21875 0.25,0.21875 0.1875,0 0.265625,-0.125 0.3125,-0.28125 0.015625,-0.03125 0.3125,-1.265625 0.34375,-1.359375 0.5,0.046875 0.890625,0.21875 0.890625,0.578125 0,0.03125 0,0.0625 -0.015625,0.140625 -0.03125,0.09375 -0.03125,0.140625 -0.03125,0.21875 0,0.484375 0.40625,0.703125 0.75,0.703125 0.671875,0 0.875,-1.046875 0.875,-1.0625 0,-0.09375 -0.078125,-0.09375 -0.109375,-0.09375 -0.09375,0 -0.109375,0.046875 -0.140625,0.171875 C 3.5625,-0.625 3.375,-0.125 3.03125,-0.125 c -0.1875,0 -0.25,-0.171875 -0.25,-0.359375 0,-0.125 0,-0.140625 0.046875,-0.3125 0.015625,-0.03125 0.03125,-0.140625 0.03125,-0.21875 0,-0.625 -0.828125,-0.71875 -1.125,-0.734375 C 1.9375,-1.875 2.1875,-2.109375 2.3125,-2.21875 2.671875,-2.546875 3.015625,-2.875 3.40625,-2.875 c 0.078125,0 0.171875,0.015625 0.234375,0.09375 C 3.34375,-2.734375 3.28125,-2.5 3.28125,-2.390625 c 0,0.140625 0.109375,0.25 0.265625,0.25 0.203125,0 0.40625,-0.15625 0.40625,-0.4375 0,-0.234375 -0.171875,-0.5 -0.53125,-0.5 -0.40625,0 -0.765625,0.296875 -1.125,0.625 C 2,-2.1875 1.78125,-1.96875 1.484375,-1.84375 Z m 0,0"
             id="path1827"
             style="fill:#2500ff;fill-opacity:1" />
        </g>
      </g>
      <g
         clip-path="url(#clipPath2666)"
         id="g1843"
         transform="matrix(0.352778,0,0,0.352778,-0.132292,0.0223132)"
         style="fill:#2500ff;fill-opacity:1">
        <g
           fill="#000000"
           fill-opacity="1"
           id="g1841"
           style="fill:#2500ff;fill-opacity:1">
          <g
             id="g1835"
             transform="translate(17.58556,12.636)"
             style="fill:#2500ff;fill-opacity:1">
            <path
               d="m 1.46875,-0.109375 c 0,0.375 -0.0625,0.828125 -0.546875,1.265625 C 0.90625,1.1875 0.875,1.21875 0.875,1.25 c 0,0.046875 0.0625,0.09375 0.09375,0.09375 0.109375,0 0.703125,-0.5625 0.703125,-1.390625 0,-0.421875 -0.171875,-0.75 -0.5,-0.75 -0.21875,0 -0.390625,0.171875 -0.390625,0.390625 C 0.78125,-0.1875 0.9375,0 1.1875,0 1.359375,0 1.46875,-0.109375 1.46875,-0.109375 Z m 0,0"
               id="path1833"
               style="fill:#2500ff;fill-opacity:1" />
          </g>
          <g
             id="g1839"
             transform="translate(19.951771,12.636)"
             style="fill:#2500ff;fill-opacity:1">
            <path
               d="m 2.875,-4.265625 c 0.046875,-0.203125 0.0625,-0.21875 0.21875,-0.25 h 0.453125 c 0.640625,0 1.4375,0 1.4375,0.71875 0,0.296875 -0.125,0.734375 -0.453125,0.984375 C 4.25,-2.59375 3.8125,-2.484375 3.328125,-2.484375 H 2.4375 Z M 4.140625,-2.375 c 0.828125,-0.1875 1.5625,-0.6875 1.5625,-1.3125 0,-0.59375 -0.703125,-1.078125 -1.71875,-1.078125 H 1.84375 c -0.125,0 -0.21875,0 -0.21875,0.15625 0,0.09375 0.078125,0.09375 0.21875,0.09375 0.015625,0 0.140625,0 0.265625,0.015625 0.15625,0.015625 0.15625,0.03125 0.15625,0.109375 0,0 0,0.046875 -0.015625,0.140625 L 1.3125,-0.546875 C 1.265625,-0.3125 1.25,-0.25 0.703125,-0.25 0.578125,-0.25 0.5,-0.25 0.5,-0.109375 0.5,-0.03125 0.546875,0 0.609375,0 c 0.125,0 0.296875,-0.015625 0.421875,-0.015625 0.140625,0 0.34375,-0.015625 0.46875,-0.015625 0.140625,0 0.296875,0.015625 0.4375,0.015625 C 2.09375,-0.015625 2.265625,0 2.40625,0 2.453125,0 2.5625,0 2.5625,-0.140625 2.5625,-0.25 2.484375,-0.25 2.328125,-0.25 2.21875,-0.25 2.1875,-0.25 2.0625,-0.265625 1.90625,-0.28125 1.90625,-0.296875 1.90625,-0.375 c 0,0 0,-0.046875 0.03125,-0.140625 L 2.375,-2.28125 h 0.953125 c 0.59375,0 0.859375,0.296875 0.859375,0.625 0,0.09375 -0.0625,0.328125 -0.109375,0.484375 C 4,-0.84375 3.96875,-0.75 3.96875,-0.625 c 0,0.546875 0.515625,0.765625 1.03125,0.765625 0.640625,0 0.921875,-0.6875 0.921875,-0.8125 0,-0.015625 -0.015625,-0.09375 -0.125,-0.09375 -0.09375,0 -0.109375,0.046875 -0.125,0.125 C 5.578125,-0.34375 5.3125,-0.0625 5.03125,-0.0625 c -0.1875,0 -0.328125,-0.0625 -0.328125,-0.453125 0,-0.171875 0.046875,-0.53125 0.078125,-0.71875 0.03125,-0.1875 0.03125,-0.25 0.03125,-0.328125 0,-0.078125 0,-0.3125 -0.203125,-0.515625 C 4.484375,-2.21875 4.296875,-2.3125 4.140625,-2.375 Z m 0,0"
               id="path1837"
               style="fill:#2500ff;fill-opacity:1" />
          </g>
        </g>
      </g>
    </g>
    <g
       inkscape:label=""
       transform="matrix(1.4248054,0,0,1.5251945,82.452896,123.2051)"
       id="g13406"
       style="fill:#2400ff;fill-opacity:1">
      <g
         fill="#000000"
         fill-opacity="1"
         id="g13374"
         transform="matrix(0.352778,0,0,0.352778,-0.132292,0.0223132)"
         style="fill:#2400ff;fill-opacity:1">
        <g
           id="g13372"
           transform="translate(0,8.4589996)"
           style="fill:#2400ff;fill-opacity:1">
          <path
             d="m 5.15625,-3.71875 c 0.140625,0 0.5,0 0.5,-0.34375 0,-0.234375 -0.21875,-0.234375 -0.390625,-0.234375 h -2.28125 c -1.5,0 -2.609375,1.640625 -2.609375,2.828125 0,0.875 0.59375,1.578125 1.5,1.578125 1.171875,0 2.5,-1.203125 2.5,-2.734375 0,-0.171875 0,-0.65625 -0.3125,-1.09375 z M 1.890625,-0.109375 C 1.390625,-0.109375 1,-0.46875 1,-1.1875 c 0,-0.296875 0.109375,-1.109375 0.46875,-1.703125 0.421875,-0.6875 1.015625,-0.828125 1.359375,-0.828125 0.828125,0 0.90625,0.65625 0.90625,0.96875 0,0.46875 -0.203125,1.28125 -0.53125,1.796875 -0.390625,0.578125 -0.9375,0.84375 -1.3125,0.84375 z m 0,0"
             id="path13370"
             style="fill:#2400ff;fill-opacity:1" />
        </g>
      </g>
      <g
         fill="#000000"
         fill-opacity="1"
         id="g13380"
         transform="matrix(0.352778,0,0,0.352778,-0.132292,0.0223132)"
         style="fill:#2400ff;fill-opacity:1">
        <g
           id="g13378"
           transform="translate(6.0500002,4.8429999)"
           style="fill:#2400ff;fill-opacity:1">
          <path
             d="m 1.90625,-2.90625 c 0.109375,0 0.171875,0.015625 0.390625,0.0625 0.21875,0.0625 0.390625,0.109375 0.515625,0.109375 0.28125,0 0.296875,-0.203125 0.296875,-0.265625 0,-0.0625 -0.015625,-0.28125 -0.296875,-0.28125 -0.125,0 -0.296875,0.046875 -0.515625,0.109375 -0.21875,0.0625 -0.28125,0.0625 -0.390625,0.078125 0.015625,-0.25 0.0625,-0.53125 0.09375,-0.75 0.03125,-0.140625 0.09375,-0.5 0.09375,-0.734375 0,-0.21875 -0.09375,-0.328125 -0.265625,-0.328125 -0.15625,0 -0.28125,0.078125 -0.28125,0.328125 0,0.21875 0.0625,0.578125 0.109375,0.8125 0.015625,0.078125 0.078125,0.40625 0.078125,0.671875 C 1.640625,-3.109375 1.5625,-3.109375 1.359375,-3.171875 1.140625,-3.234375 0.96875,-3.28125 0.84375,-3.28125 c -0.28125,0 -0.3125,0.21875 -0.3125,0.28125 0,0.046875 0.03125,0.265625 0.3125,0.265625 0.125,0 0.296875,-0.046875 0.515625,-0.109375 0.203125,-0.046875 0.28125,-0.0625 0.375,-0.0625 0,0.171875 -0.0625,0.390625 -0.09375,0.53125 -0.09375,0.4375 -0.09375,0.484375 -0.09375,0.84375 0,1.34375 0.140625,2.78125 0.15625,2.921875 0.015625,0.0625 0.03125,0.09375 0.125,0.09375 0.109375,0 0.109375,-0.03125 0.125,-0.125 0,-0.015625 0.046875,-0.625 0.078125,-1.046875 0.03125,-0.609375 0.0625,-1.21875 0.0625,-1.84375 0,-0.359375 0,-0.40625 -0.09375,-0.859375 -0.015625,-0.0625 -0.078125,-0.34375 -0.09375,-0.515625 z m 0,0"
             id="path13376"
             style="fill:#2400ff;fill-opacity:1" />
        </g>
      </g>
      <g
         fill="#000000"
         fill-opacity="1"
         id="g13386"
         transform="matrix(0.352778,0,0,0.352778,-0.132292,0.0223132)"
         style="fill:#2400ff;fill-opacity:1">
        <g
           id="g13384"
           transform="translate(10.201,8.4589996)"
           style="fill:#2400ff;fill-opacity:1">
          <path
             d="M 4.609375,-3.375 C 4.65625,-3.59375 4.75,-3.96875 4.75,-4.03125 c 0,-0.171875 -0.140625,-0.265625 -0.28125,-0.265625 -0.125,0 -0.296875,0.078125 -0.375,0.28125 -0.03125,0.0625 -0.5,1.96875 -0.5625,2.234375 C 3.453125,-1.484375 3.4375,-1.3125 3.4375,-1.125 c 0,0.109375 0,0.125 0.015625,0.171875 -0.234375,0.53125 -0.53125,0.84375 -0.921875,0.84375 -0.796875,0 -0.796875,-0.734375 -0.796875,-0.90625 0,-0.3125 0.046875,-0.703125 0.515625,-1.9375 0.109375,-0.296875 0.171875,-0.4375 0.171875,-0.640625 0,-0.4375 -0.328125,-0.8125 -0.8125,-0.8125 -0.953125,0 -1.3125,1.453125 -1.3125,1.53125 0,0.109375 0.09375,0.109375 0.109375,0.109375 0.109375,0 0.109375,-0.03125 0.15625,-0.1875 C 0.84375,-3.875 1.21875,-4.1875 1.578125,-4.1875 c 0.09375,0 0.25,0.015625 0.25,0.328125 0,0.25 -0.109375,0.53125 -0.1875,0.703125 -0.4375,1.171875 -0.546875,1.625 -0.546875,2.015625 0,0.90625 0.65625,1.25 1.40625,1.25 0.171875,0 0.640625,0 1.03125,-0.703125 0.265625,0.640625 0.953125,0.703125 1.25,0.703125 0.75,0 1.1875,-0.625 1.453125,-1.21875 0.328125,-0.78125 0.65625,-2.125 0.65625,-2.59375 0,-0.546875 -0.265625,-0.703125 -0.4375,-0.703125 -0.25,0 -0.5,0.265625 -0.5,0.484375 0,0.125 0.0625,0.1875 0.140625,0.265625 0.109375,0.109375 0.359375,0.359375 0.359375,0.84375 0,0.34375 -0.28125,1.3125 -0.546875,1.828125 -0.25,0.53125 -0.609375,0.875 -1.09375,0.875 -0.46875,0 -0.734375,-0.296875 -0.734375,-0.875 0,-0.265625 0.0625,-0.578125 0.109375,-0.71875 z m 0,0"
             id="path13382"
             style="fill:#2400ff;fill-opacity:1" />
        </g>
      </g>
      <g
         fill="#000000"
         fill-opacity="1"
         id="g13392"
         transform="matrix(0.352778,0,0,0.352778,-0.132292,0.0223132)"
         style="fill:#2400ff;fill-opacity:1">
        <g
           id="g13390"
           transform="translate(17.334,9.9530001)"
           style="fill:#2400ff;fill-opacity:1">
          <path
             d="m 2.1875,-4.625 c 0,-0.015625 0.015625,-0.109375 0.015625,-0.109375 0,-0.046875 -0.015625,-0.109375 -0.109375,-0.109375 -0.140625,0 -0.71875,0.0625 -0.890625,0.078125 -0.046875,0 -0.15625,0.015625 -0.15625,0.15625 0,0.09375 0.109375,0.09375 0.1875,0.09375 0.328125,0 0.328125,0.0625 0.328125,0.109375 0,0.046875 -0.015625,0.09375 -0.015625,0.15625 L 0.5625,-0.3125 c -0.046875,0.125 -0.046875,0.140625 -0.046875,0.15625 0,0.109375 0.09375,0.21875 0.25,0.21875 0.1875,0 0.265625,-0.125 0.3125,-0.28125 0.015625,-0.03125 0.3125,-1.265625 0.34375,-1.359375 0.5,0.046875 0.890625,0.21875 0.890625,0.578125 0,0.03125 0,0.0625 -0.015625,0.140625 -0.03125,0.09375 -0.03125,0.140625 -0.03125,0.21875 0,0.484375 0.40625,0.703125 0.75,0.703125 0.671875,0 0.875,-1.046875 0.875,-1.0625 0,-0.09375 -0.078125,-0.09375 -0.109375,-0.09375 -0.09375,0 -0.109375,0.046875 -0.140625,0.171875 C 3.5625,-0.625 3.375,-0.125 3.03125,-0.125 c -0.1875,0 -0.25,-0.171875 -0.25,-0.359375 0,-0.125 0,-0.140625 0.046875,-0.3125 0.015625,-0.03125 0.03125,-0.140625 0.03125,-0.21875 0,-0.625 -0.828125,-0.71875 -1.125,-0.734375 C 1.9375,-1.875 2.1875,-2.109375 2.3125,-2.21875 2.671875,-2.546875 3.015625,-2.875 3.40625,-2.875 c 0.078125,0 0.171875,0.015625 0.234375,0.09375 C 3.34375,-2.734375 3.28125,-2.5 3.28125,-2.390625 c 0,0.140625 0.109375,0.25 0.265625,0.25 0.203125,0 0.40625,-0.15625 0.40625,-0.4375 0,-0.234375 -0.171875,-0.5 -0.53125,-0.5 -0.40625,0 -0.765625,0.296875 -1.125,0.625 C 2,-2.1875 1.78125,-1.96875 1.484375,-1.84375 Z m 0,0"
             id="path13388"
             style="fill:#2400ff;fill-opacity:1" />
        </g>
      </g>
      <g
         clip-path="url(#clipPath8002)"
         id="g13404"
         transform="matrix(0.352778,0,0,0.352778,-0.132292,0.0223132)"
         style="fill:#2400ff;fill-opacity:1">
        <g
           fill="#000000"
           fill-opacity="1"
           id="g13402"
           style="fill:#2400ff;fill-opacity:1">
          <g
             id="g13396"
             transform="translate(21.736561,9.9530001)"
             style="fill:#2400ff;fill-opacity:1">
            <path
               d="m 1.46875,-0.109375 c 0,0.375 -0.0625,0.828125 -0.546875,1.265625 C 0.90625,1.1875 0.875,1.21875 0.875,1.25 c 0,0.046875 0.0625,0.09375 0.09375,0.09375 0.109375,0 0.703125,-0.5625 0.703125,-1.390625 0,-0.421875 -0.171875,-0.75 -0.5,-0.75 -0.21875,0 -0.390625,0.171875 -0.390625,0.390625 C 0.78125,-0.1875 0.9375,0 1.1875,0 1.359375,0 1.46875,-0.109375 1.46875,-0.109375 Z m 0,0"
               id="path13394"
               style="fill:#2400ff;fill-opacity:1" />
          </g>
          <g
             id="g13400"
             transform="translate(24.10277,9.9530001)"
             style="fill:#2400ff;fill-opacity:1">
            <path
               d="m 2.875,-4.265625 c 0.046875,-0.203125 0.0625,-0.21875 0.21875,-0.25 h 0.453125 c 0.640625,0 1.4375,0 1.4375,0.71875 0,0.296875 -0.125,0.734375 -0.453125,0.984375 C 4.25,-2.59375 3.8125,-2.484375 3.328125,-2.484375 H 2.4375 Z M 4.140625,-2.375 c 0.828125,-0.1875 1.5625,-0.6875 1.5625,-1.3125 0,-0.59375 -0.703125,-1.078125 -1.71875,-1.078125 H 1.84375 c -0.125,0 -0.21875,0 -0.21875,0.15625 0,0.09375 0.078125,0.09375 0.21875,0.09375 0.015625,0 0.140625,0 0.265625,0.015625 0.15625,0.015625 0.15625,0.03125 0.15625,0.109375 0,0 0,0.046875 -0.015625,0.140625 L 1.3125,-0.546875 C 1.265625,-0.3125 1.25,-0.25 0.703125,-0.25 0.578125,-0.25 0.5,-0.25 0.5,-0.109375 0.5,-0.03125 0.546875,0 0.609375,0 c 0.125,0 0.296875,-0.015625 0.421875,-0.015625 0.140625,0 0.34375,-0.015625 0.46875,-0.015625 0.140625,0 0.296875,0.015625 0.4375,0.015625 C 2.09375,-0.015625 2.265625,0 2.40625,0 2.453125,0 2.5625,0 2.5625,-0.140625 2.5625,-0.25 2.484375,-0.25 2.328125,-0.25 2.21875,-0.25 2.1875,-0.25 2.0625,-0.265625 1.90625,-0.28125 1.90625,-0.296875 1.90625,-0.375 c 0,0 0,-0.046875 0.03125,-0.140625 L 2.375,-2.28125 h 0.953125 c 0.59375,0 0.859375,0.296875 0.859375,0.625 0,0.09375 -0.0625,0.328125 -0.109375,0.484375 C 4,-0.84375 3.96875,-0.75 3.96875,-0.625 c 0,0.546875 0.515625,0.765625 1.03125,0.765625 0.640625,0 0.921875,-0.6875 0.921875,-0.8125 0,-0.015625 -0.015625,-0.09375 -0.125,-0.09375 -0.09375,0 -0.109375,0.046875 -0.125,0.125 C 5.578125,-0.34375 5.3125,-0.0625 5.03125,-0.0625 c -0.1875,0 -0.328125,-0.0625 -0.328125,-0.453125 0,-0.171875 0.046875,-0.53125 0.078125,-0.71875 0.03125,-0.1875 0.03125,-0.25 0.03125,-0.328125 0,-0.078125 0,-0.3125 -0.203125,-0.515625 C 4.484375,-2.21875 4.296875,-2.3125 4.140625,-2.375 Z m 0,0"
               id="path13398"
               style="fill:#2400ff;fill-opacity:1" />
          </g>
        </g>
      </g>
    </g>
    <g
       id="g37382"
       transform="matrix(-1,0,0,1,108.38424,34.052913)">
      <path
         style="display:inline;opacity:1;fill:#ff0000;fill-opacity:0;stroke:#2500ff;stroke-width:0.634;stroke-dasharray:none;stroke-opacity:1;marker-end:url(#Arrow3)"
         d="m 90.144855,78.079371 c -0.09615,2.700143 0.824943,6.193952 -7.560718,5.67272"
         id="path14173"
         sodipodi:nodetypes="cc"
         inkscape:transform-center-x="-2.4575324"
         inkscape:transform-center-y="-0.76180238" />
      <path
         style="display:inline;opacity:0.8;fill:#ff0000;fill-opacity:0;stroke:#ff000d;stroke-width:0.634;stroke-dasharray:none;stroke-opacity:1"
         d="m 83.129029,72.560255 c 5.649286,-0.09062 6.972122,0.616036 6.98259,5.523405"
         id="path35108"
         sodipodi:nodetypes="cc"
         inkscape:transform-center-x="-2.4575324"
         inkscape:transform-center-y="-0.76180238" />
    </g>
    <rect
       style="fill:#000000;fill-opacity:1;stroke-width:1.463"
       id="rect7610"
       width="4.5762711"
       height="38.898304"
       x="4.1186438"
       y="91.983047" />
    <path
       style="fill:none;stroke:#2500ff;stroke-width:1.46272;stroke-dasharray:none;stroke-opacity:1"
       d="m 135.72278,110.70343 c 1.20433,-0.0386 2.4084,-0.0405 3.61308,-1.05673 1.20468,-1.01372 2.41,-3.78025 3.61512,-5.99584 1.20512,-2.21802 2.40919,-2.21516 3.6127,0.002 1.20352,2.21648 2.40683,4.98145 3.61077,5.99848 1.20371,1.01949 2.40802,1.01993 3.61232,1.05936"
       title="t exp(-t*t*5)"
       id="path9682"
       sodipodi:nodetypes="cccscc" />
    <path
       style="fill:none;stroke:#2500ff;stroke-width:0.634;stroke-dasharray:none;stroke-opacity:1;marker-end:url(#Arrow1)"
       d="m 153.06833,105.81188 7.17493,0.0118"
       id="path9684" />
    <path
       style="display:inline;opacity:0.8;fill:none;fill-opacity:0.5;stroke:#ff0000;stroke-width:0.634;stroke-dasharray:none;stroke-opacity:1;marker-end:url(#Arrow3)"
       d="M 94.246537,95.19921 C 87.173936,89.783092 74.730028,90.908441 71.262026,101.60487"
       id="path11186"
       sodipodi:nodetypes="cc" />
    <path
       style="fill:none;fill-opacity:0.5;stroke:#ff0000;stroke-width:1.46272;stroke-dasharray:none;stroke-opacity:1"
       d="m 76.095948,110.70343 c -1.204324,-0.0386 -2.408388,-0.0405 -3.613059,-1.05673 -1.204674,-1.01372 -2.409988,-3.78025 -3.615102,-5.99584 -1.205111,-2.21802 -2.409175,-2.21516 -3.612679,0.002 -1.203514,2.21648 -2.406815,4.98145 -3.610749,5.99848 -1.203704,1.01949 -2.408005,1.01993 -3.612299,1.05936"
       title="t exp(-t*t*5)"
       id="path11226"
       sodipodi:nodetypes="cccscc" />
    <path
       style="fill:none;fill-opacity:0.5;stroke:#ff0000;stroke-width:0.634;stroke-dasharray:none;stroke-opacity:1;marker-end:url(#Arrow1)"
       d="m 58.750494,105.81188 -7.174888,0.0118"
       id="path11228" />
    <path
       style="fill:none;stroke:#2500ff;stroke-width:1.46272;stroke-dasharray:none;stroke-opacity:1"
       d="m 31.4949,113.10812 c 1.20435,0.0386 2.408444,0.0405 3.613144,1.05673 1.2047,1.01372 2.410029,3.78025 3.615169,5.99584 1.205133,2.21802 2.409223,2.21516 3.612757,-0.002 1.20354,-2.21648 2.40687,-4.98145 3.61083,-5.99848 1.203723,-1.01949 2.408053,-1.01993 3.612369,-1.05936"
       title="t exp(-t*t*5)"
       id="path12572"
       sodipodi:nodetypes="cccscc" />
    <path
       style="fill:none;stroke:#2500ff;stroke-width:0.634;stroke-dasharray:none;stroke-opacity:1;marker-end:url(#Arrow1)"
       d="m 48.840721,117.99967 7.174902,-0.0118"
       id="path12574" />
    <g
       inkscape:label=""
       transform="matrix(1.4559507,0,0,1.4559507,76.230323,83.176898)"
       id="g1019"
       style="fill:#ff0003;fill-opacity:1;stroke:none;stroke-opacity:0.996078">
      <g
         fill="#000000"
         fill-opacity="1"
         id="g987"
         transform="matrix(0.352778,0,0,0.352778,-0.132292,0.0223132)"
         style="fill:#ff0003;fill-opacity:1;stroke:none;stroke-opacity:0.996078">
        <g
           id="g985"
           transform="translate(0,9.6309996)"
           style="fill:#ff0003;fill-opacity:1;stroke:none;stroke-opacity:0.996078">
          <path
             d="m 5.15625,-3.71875 c 0.140625,0 0.5,0 0.5,-0.34375 0,-0.234375 -0.21875,-0.234375 -0.390625,-0.234375 h -2.28125 c -1.5,0 -2.609375,1.640625 -2.609375,2.828125 0,0.875 0.59375,1.578125 1.5,1.578125 1.171875,0 2.5,-1.203125 2.5,-2.734375 0,-0.171875 0,-0.65625 -0.3125,-1.09375 z M 1.890625,-0.109375 C 1.390625,-0.109375 1,-0.46875 1,-1.1875 c 0,-0.296875 0.109375,-1.109375 0.46875,-1.703125 0.421875,-0.6875 1.015625,-0.828125 1.359375,-0.828125 0.828125,0 0.90625,0.65625 0.90625,0.96875 0,0.46875 -0.203125,1.28125 -0.53125,1.796875 -0.390625,0.578125 -0.9375,0.84375 -1.3125,0.84375 z m 0,0"
             id="path983"
             style="fill:#ff0003;fill-opacity:1;stroke:none;stroke-opacity:0.996078" />
        </g>
      </g>
      <g
         fill="#000000"
         fill-opacity="1"
         id="g993"
         transform="matrix(0.352778,0,0,0.352778,-0.132292,0.0223132)"
         style="fill:#ff0003;fill-opacity:1;stroke:none;stroke-opacity:0.996078">
        <g
           id="g991"
           transform="translate(6.0512829,9.6309996)"
           style="fill:#ff0003;fill-opacity:1;stroke:none;stroke-opacity:0.996078">
          <path
             d="M 4.609375,-3.375 C 4.65625,-3.59375 4.75,-3.96875 4.75,-4.03125 c 0,-0.171875 -0.140625,-0.265625 -0.28125,-0.265625 -0.125,0 -0.296875,0.078125 -0.375,0.28125 -0.03125,0.0625 -0.5,1.96875 -0.5625,2.234375 C 3.453125,-1.484375 3.4375,-1.3125 3.4375,-1.125 c 0,0.109375 0,0.125 0.015625,0.171875 -0.234375,0.53125 -0.53125,0.84375 -0.921875,0.84375 -0.796875,0 -0.796875,-0.734375 -0.796875,-0.90625 0,-0.3125 0.046875,-0.703125 0.515625,-1.9375 0.109375,-0.296875 0.171875,-0.4375 0.171875,-0.640625 0,-0.4375 -0.328125,-0.8125 -0.8125,-0.8125 -0.953125,0 -1.3125,1.453125 -1.3125,1.53125 0,0.109375 0.09375,0.109375 0.109375,0.109375 0.109375,0 0.109375,-0.03125 0.15625,-0.1875 C 0.84375,-3.875 1.21875,-4.1875 1.578125,-4.1875 c 0.09375,0 0.25,0.015625 0.25,0.328125 0,0.25 -0.109375,0.53125 -0.1875,0.703125 -0.4375,1.171875 -0.546875,1.625 -0.546875,2.015625 0,0.90625 0.65625,1.25 1.40625,1.25 0.171875,0 0.640625,0 1.03125,-0.703125 0.265625,0.640625 0.953125,0.703125 1.25,0.703125 0.75,0 1.1875,-0.625 1.453125,-1.21875 0.328125,-0.78125 0.65625,-2.125 0.65625,-2.59375 0,-0.546875 -0.265625,-0.703125 -0.4375,-0.703125 -0.25,0 -0.5,0.265625 -0.5,0.484375 0,0.125 0.0625,0.1875 0.140625,0.265625 0.109375,0.109375 0.359375,0.359375 0.359375,0.84375 0,0.34375 -0.28125,1.3125 -0.546875,1.828125 -0.25,0.53125 -0.609375,0.875 -1.09375,0.875 -0.46875,0 -0.734375,-0.296875 -0.734375,-0.875 0,-0.265625 0.0625,-0.578125 0.109375,-0.71875 z m 0,0"
             id="path989"
             style="fill:#ff0003;fill-opacity:1;stroke:none;stroke-opacity:0.996078" />
        </g>
      </g>
      <g
         fill="#000000"
         fill-opacity="1"
         id="g999"
         transform="matrix(0.352778,0,0,0.352778,-0.132292,0.0223132)"
         style="fill:#ff0003;fill-opacity:1;stroke:none;stroke-opacity:0.996078">
        <g
           id="g997"
           transform="translate(13.451,4.8429999)"
           style="fill:#ff0003;fill-opacity:1;stroke:none;stroke-opacity:0.996078">
          <path
             d="m 1.90625,-2.90625 c 0.109375,0 0.171875,0.015625 0.390625,0.0625 0.21875,0.0625 0.390625,0.109375 0.515625,0.109375 0.28125,0 0.296875,-0.203125 0.296875,-0.265625 0,-0.0625 -0.015625,-0.28125 -0.296875,-0.28125 -0.125,0 -0.296875,0.046875 -0.515625,0.109375 -0.21875,0.0625 -0.28125,0.0625 -0.390625,0.078125 0.015625,-0.25 0.0625,-0.53125 0.09375,-0.75 0.03125,-0.140625 0.09375,-0.5 0.09375,-0.734375 0,-0.21875 -0.09375,-0.328125 -0.265625,-0.328125 -0.15625,0 -0.28125,0.078125 -0.28125,0.328125 0,0.21875 0.0625,0.578125 0.109375,0.8125 0.015625,0.078125 0.078125,0.40625 0.078125,0.671875 C 1.640625,-3.109375 1.5625,-3.109375 1.359375,-3.171875 1.140625,-3.234375 0.96875,-3.28125 0.84375,-3.28125 c -0.28125,0 -0.3125,0.21875 -0.3125,0.28125 0,0.046875 0.03125,0.265625 0.3125,0.265625 0.125,0 0.296875,-0.046875 0.515625,-0.109375 0.203125,-0.046875 0.28125,-0.0625 0.375,-0.0625 0,0.171875 -0.0625,0.390625 -0.09375,0.53125 -0.09375,0.4375 -0.09375,0.484375 -0.09375,0.84375 0,1.34375 0.140625,2.78125 0.15625,2.921875 0.015625,0.0625 0.03125,0.09375 0.125,0.09375 0.109375,0 0.109375,-0.03125 0.125,-0.125 0,-0.015625 0.046875,-0.625 0.078125,-1.046875 0.03125,-0.609375 0.0625,-1.21875 0.0625,-1.84375 0,-0.359375 0,-0.40625 -0.09375,-0.859375 -0.015625,-0.0625 -0.078125,-0.34375 -0.09375,-0.515625 z m 0,0"
             id="path995"
             style="fill:#ff0003;fill-opacity:1;stroke:none;stroke-opacity:0.996078" />
        </g>
      </g>
      <g
         fill="#000000"
         fill-opacity="1"
         id="g1005"
         transform="matrix(0.352778,0,0,0.352778,-0.132292,0.0223132)"
         style="fill:#ff0003;fill-opacity:1;stroke:none;stroke-opacity:0.996078">
        <g
           id="g1003"
           transform="translate(13.183,12.636)"
           style="fill:#ff0003;fill-opacity:1;stroke:none;stroke-opacity:0.996078">
          <path
             d="m 2.1875,-4.625 c 0,-0.015625 0.015625,-0.109375 0.015625,-0.109375 0,-0.046875 -0.015625,-0.109375 -0.109375,-0.109375 -0.140625,0 -0.71875,0.0625 -0.890625,0.078125 -0.046875,0 -0.15625,0.015625 -0.15625,0.15625 0,0.09375 0.109375,0.09375 0.1875,0.09375 0.328125,0 0.328125,0.0625 0.328125,0.109375 0,0.046875 -0.015625,0.09375 -0.015625,0.15625 L 0.5625,-0.3125 c -0.046875,0.125 -0.046875,0.140625 -0.046875,0.15625 0,0.109375 0.09375,0.21875 0.25,0.21875 0.1875,0 0.265625,-0.125 0.3125,-0.28125 0.015625,-0.03125 0.3125,-1.265625 0.34375,-1.359375 0.5,0.046875 0.890625,0.21875 0.890625,0.578125 0,0.03125 0,0.0625 -0.015625,0.140625 -0.03125,0.09375 -0.03125,0.140625 -0.03125,0.21875 0,0.484375 0.40625,0.703125 0.75,0.703125 0.671875,0 0.875,-1.046875 0.875,-1.0625 0,-0.09375 -0.078125,-0.09375 -0.109375,-0.09375 -0.09375,0 -0.109375,0.046875 -0.140625,0.171875 C 3.5625,-0.625 3.375,-0.125 3.03125,-0.125 c -0.1875,0 -0.25,-0.171875 -0.25,-0.359375 0,-0.125 0,-0.140625 0.046875,-0.3125 0.015625,-0.03125 0.03125,-0.140625 0.03125,-0.21875 0,-0.625 -0.828125,-0.71875 -1.125,-0.734375 C 1.9375,-1.875 2.1875,-2.109375 2.3125,-2.21875 2.671875,-2.546875 3.015625,-2.875 3.40625,-2.875 c 0.078125,0 0.171875,0.015625 0.234375,0.09375 C 3.34375,-2.734375 3.28125,-2.5 3.28125,-2.390625 c 0,0.140625 0.109375,0.25 0.265625,0.25 0.203125,0 0.40625,-0.15625 0.40625,-0.4375 0,-0.234375 -0.171875,-0.5 -0.53125,-0.5 -0.40625,0 -0.765625,0.296875 -1.125,0.625 C 2,-2.1875 1.78125,-1.96875 1.484375,-1.84375 Z m 0,0"
             id="path1001"
             style="fill:#ff0003;fill-opacity:1;stroke:none;stroke-opacity:0.996078" />
        </g>
      </g>
      <g
         clip-path="url(#clipPath7222-3)"
         id="g1017"
         transform="matrix(0.352778,0,0,0.352778,-0.132292,0.0223132)"
         style="fill:#ff0003;fill-opacity:1;stroke:none;stroke-opacity:0.996078">
        <g
           fill="#000000"
           fill-opacity="1"
           id="g1015"
           style="fill:#ff0003;fill-opacity:1;stroke:none;stroke-opacity:0.996078">
          <g
             id="g1009"
             transform="translate(17.58556,12.636)"
             style="fill:#ff0003;fill-opacity:1;stroke:none;stroke-opacity:0.996078">
            <path
               d="m 1.46875,-0.109375 c 0,0.375 -0.0625,0.828125 -0.546875,1.265625 C 0.90625,1.1875 0.875,1.21875 0.875,1.25 c 0,0.046875 0.0625,0.09375 0.09375,0.09375 0.109375,0 0.703125,-0.5625 0.703125,-1.390625 0,-0.421875 -0.171875,-0.75 -0.5,-0.75 -0.21875,0 -0.390625,0.171875 -0.390625,0.390625 C 0.78125,-0.1875 0.9375,0 1.1875,0 1.359375,0 1.46875,-0.109375 1.46875,-0.109375 Z m 0,0"
               id="path1007"
               style="fill:#ff0003;fill-opacity:1;stroke:none;stroke-opacity:0.996078" />
          </g>
          <g
             id="g1013"
             transform="translate(19.951771,12.636)"
             style="fill:#ff0003;fill-opacity:1;stroke:none;stroke-opacity:0.996078">
            <path
               d="m 2.875,-4.1875 c 0.0625,-0.25 0.078125,-0.328125 0.71875,-0.328125 0.21875,0 0.28125,0 0.28125,-0.140625 0,-0.015625 0,-0.109375 -0.109375,-0.109375 -0.15625,0 -0.34375,0.015625 -0.515625,0.03125 -0.171875,0 -0.390625,0 -0.5625,0 -0.140625,0 -0.328125,0 -0.484375,0 -0.140625,0 -0.3125,-0.03125 -0.453125,-0.03125 -0.03125,0 -0.140625,0 -0.140625,0.15625 0,0.09375 0.078125,0.09375 0.21875,0.09375 0.015625,0 0.140625,0 0.265625,0.015625 0.15625,0.015625 0.171875,0.03125 0.171875,0.109375 0,0 0,0.046875 -0.03125,0.140625 l -0.9375,3.703125 C 1.234375,-0.3125 1.21875,-0.25 0.6875,-0.25 c -0.109375,0 -0.203125,0 -0.203125,0.140625 C 0.484375,0 0.5625,0 0.6875,0 h 3.5 c 0.1875,0 0.1875,0 0.25,-0.140625 0.0625,-0.1875 0.59375,-1.53125 0.59375,-1.59375 0,-0.015625 -0.015625,-0.09375 -0.125,-0.09375 -0.078125,0 -0.09375,0.03125 -0.140625,0.140625 C 4.5,-1.03125 4.1875,-0.25 2.921875,-0.25 H 2.125 c -0.203125,0 -0.21875,-0.015625 -0.21875,-0.078125 0,0 0,-0.03125 0.03125,-0.140625 z m 0,0"
               id="path1011"
               style="fill:#ff0003;fill-opacity:1;stroke:none;stroke-opacity:0.996078" />
          </g>
        </g>
      </g>
    </g>
    <g
       inkscape:label=""
       transform="matrix(2.1296709,0,0,2.1296709,49.874,65.615604)"
       id="g16709">
      <g
         fill="#000000"
         fill-opacity="1"
         id="g22"
         transform="matrix(0.352778,0,0,0.352778,-0.110243,9.7028e-4)">
        <g
           id="use20"
           transform="translate(0,8.9659996)">
          <path
             d="m 3.4375,-4.5 h 1.984375 c 0.140625,0 0.546875,0 0.546875,-0.390625 0,-0.265625 -0.234375,-0.265625 -0.453125,-0.265625 h -3.28125 c -0.28125,0 -0.6875,0 -1.234375,0.59375 -0.3125,0.34375 -0.6875,0.984375 -0.6875,1.046875 0,0.078125 0.0625,0.09375 0.125,0.09375 0.09375,0 0.09375,-0.03125 0.15625,-0.109375 C 1.21875,-4.5 1.84375,-4.5 2.140625,-4.5 H 3.125 l -1.234375,4.09375 c -0.0625,0.171875 -0.0625,0.203125 -0.0625,0.234375 0,0.140625 0.078125,0.296875 0.328125,0.296875 0.359375,0 0.421875,-0.3125 0.46875,-0.5 z m 0,0"
             id="path38" />
        </g>
      </g>
      <g
         clip-path="url(#clipPath9991)"
         id="g28"
         transform="matrix(0.352778,0,0,0.352778,-0.110243,9.7028e-4)">
        <g
           fill="#000000"
           fill-opacity="1"
           id="g26">
          <g
             id="use24"
             transform="translate(6.4223328,8.9659996)">
            <path
               d="m 5.125,-8.515625 c 0,-0.015625 0.078125,-0.203125 0.078125,-0.21875 0,-0.140625 -0.125,-0.234375 -0.21875,-0.234375 -0.0625,0 -0.171875,0 -0.265625,0.265625 l -4,11.25 c 0,0.015625 -0.078125,0.1875 -0.078125,0.21875 0,0.140625 0.125,0.21875 0.21875,0.21875 0.078125,0 0.1875,-0.015625 0.265625,-0.265625 z m 0,0"
               id="path42" />
          </g>
        </g>
      </g>
      <g
         fill="#000000"
         fill-opacity="1"
         id="g32"
         transform="matrix(0.352778,0,0,0.352778,-0.110243,9.7028e-4)">
        <g
           id="use30"
           transform="translate(12.272,8.9659996)">
          <path
             d="M 5.265625,-2.015625 H 5 c -0.046875,0.203125 -0.140625,0.875 -0.25,1.0625 C 4.65625,-0.84375 3.984375,-0.84375 3.625,-0.84375 H 1.40625 c 0.328125,-0.28125 1.0625,-1.046875 1.359375,-1.328125 1.828125,-1.671875 2.5,-2.296875 2.5,-3.484375 0,-1.375 -1.09375,-2.296875 -2.484375,-2.296875 -1.375,0 -2.203125,1.1875 -2.203125,2.21875 0,0.609375 0.53125,0.609375 0.5625,0.609375 0.265625,0 0.5625,-0.1875 0.5625,-0.5625 0,-0.34375 -0.21875,-0.5625 -0.5625,-0.5625 -0.09375,0 -0.125,0 -0.15625,0.015625 0.21875,-0.8125 0.875,-1.375 1.640625,-1.375 1.015625,0 1.640625,0.859375 1.640625,1.953125 C 4.265625,-4.640625 3.6875,-3.75 3,-2.984375 L 0.578125,-0.28125 V 0 h 4.375 z m 0,0"
             id="path46" />
        </g>
      </g>
    </g>
    <g
       inkscape:label=""
       transform="matrix(0,0.57709274,-2.1642718,0,96.394895,76.831146)"
       id="g18302">
      <g
         clip-path="url(#clipPath7545)"
         id="g18300"
         transform="matrix(0.352778,0,0,0.352778,-3.57187,0.00238129)">
        <g
           fill="#000000"
           fill-opacity="1"
           id="g18298">
          <g
             id="g18296"
             transform="translate(0,3.5869999)">
            <path
               d="m 23.046875,35.765625 c 0,6.28125 -3.140625,9.6875 -12.203125,13.28125 -0.4375,0.171875 -0.71875,0.53125 -0.71875,1.078125 0,0.703125 0.1875,0.984375 0.90625,1.25 12.015625,4.65625 12.015625,9.5 12.015625,14.515625 v 24.75 c 0.07813,2.421875 1.421875,5.734375 5.375,8.421875 4.390625,2.96875 11.65625,4.84375 12.46875,4.84375 0.890625,0 1.15625,-0.35937 1.15625,-1.15625 0,-0.8125 -0.171875,-0.90625 -1.515625,-1.34375 C 37.921875,100.42188 30.9375,97.640625 29.5,92.171875 29.234375,91.09375 29.234375,90.90625 29.234375,87.59375 V 65.625 c 0,-4.65625 0,-11.203125 -14.625,-15.421875 14.625,-4.484375 14.625,-10.578125 14.625,-15.59375 v -21.96875 c 0,-4.9375 0,-9.59375 12.1875,-14.078125 0.625,-0.171875 0.625,-0.796875 0.625,-0.984375 0,-0.8125 -0.265625,-1.171875 -1.15625,-1.171875 -0.640625,0 -13.28125,2.875 -16.421875,8.796875 -1.421875,2.6875 -1.421875,3.5 -1.421875,7.34375 z m 0,0"
               id="path18294" />
          </g>
        </g>
      </g>
    </g>
  </g>
</svg>
